<mxfile host="Electron" modified="2024-01-12T18:30:04.025Z" agent="Mozilla/5.0 (Windows NT 10.0; Win64; x64) AppleWebKit/537.36 (KHTML, like Gecko) draw.io/22.1.18 Chrome/120.0.6099.199 Electron/28.1.2 Safari/537.36" etag="AW84x2Pjpqtqe6fbfapo" version="22.1.18" type="device">
  <diagram id="C5RBs43oDa-KdzZeNtuy" name="Page-1">
    <mxGraphModel dx="1050" dy="621" grid="1" gridSize="10" guides="1" tooltips="1" connect="1" arrows="1" fold="1" page="1" pageScale="1" pageWidth="827" pageHeight="1169" math="0" shadow="0">
      <root>
        <mxCell id="WIyWlLk6GJQsqaUBKTNV-0" />
        <mxCell id="WIyWlLk6GJQsqaUBKTNV-1" parent="WIyWlLk6GJQsqaUBKTNV-0" />
        <mxCell id="WIyWlLk6GJQsqaUBKTNV-2" value="" style="rounded=0;html=1;jettySize=auto;orthogonalLoop=1;fontSize=11;endArrow=block;endFill=0;endSize=8;strokeWidth=1;shadow=0;labelBackgroundColor=none;edgeStyle=orthogonalEdgeStyle;" parent="WIyWlLk6GJQsqaUBKTNV-1" source="WIyWlLk6GJQsqaUBKTNV-3" target="WIyWlLk6GJQsqaUBKTNV-6" edge="1">
          <mxGeometry relative="1" as="geometry" />
        </mxCell>
        <mxCell id="WIyWlLk6GJQsqaUBKTNV-3" value="meging" style="rounded=1;whiteSpace=wrap;html=1;fontSize=12;glass=0;strokeWidth=1;shadow=0;" parent="WIyWlLk6GJQsqaUBKTNV-1" vertex="1">
          <mxGeometry x="40" y="155" width="120" height="40" as="geometry" />
        </mxCell>
        <mxCell id="G9UZVXcUS-SELGoSl9c2-1" style="edgeStyle=orthogonalEdgeStyle;rounded=0;orthogonalLoop=1;jettySize=auto;html=1;exitX=1;exitY=0.5;exitDx=0;exitDy=0;entryX=0;entryY=0.5;entryDx=0;entryDy=0;" edge="1" parent="WIyWlLk6GJQsqaUBKTNV-1" source="WIyWlLk6GJQsqaUBKTNV-6" target="G9UZVXcUS-SELGoSl9c2-0">
          <mxGeometry relative="1" as="geometry" />
        </mxCell>
        <mxCell id="G9UZVXcUS-SELGoSl9c2-4" value="&lt;b&gt;&lt;font style=&quot;font-size: 13px;&quot;&gt;Yes&lt;/font&gt;&lt;/b&gt;" style="edgeLabel;html=1;align=center;verticalAlign=middle;resizable=0;points=[];" vertex="1" connectable="0" parent="G9UZVXcUS-SELGoSl9c2-1">
          <mxGeometry x="-0.332" relative="1" as="geometry">
            <mxPoint as="offset" />
          </mxGeometry>
        </mxCell>
        <mxCell id="G9UZVXcUS-SELGoSl9c2-9" style="edgeStyle=orthogonalEdgeStyle;rounded=0;orthogonalLoop=1;jettySize=auto;html=1;" edge="1" parent="WIyWlLk6GJQsqaUBKTNV-1" source="WIyWlLk6GJQsqaUBKTNV-6">
          <mxGeometry relative="1" as="geometry">
            <mxPoint x="260" y="280" as="targetPoint" />
          </mxGeometry>
        </mxCell>
        <mxCell id="G9UZVXcUS-SELGoSl9c2-11" value="&lt;b&gt;No&lt;/b&gt;" style="edgeLabel;html=1;align=center;verticalAlign=middle;resizable=0;points=[];" vertex="1" connectable="0" parent="G9UZVXcUS-SELGoSl9c2-9">
          <mxGeometry x="-0.0119" relative="1" as="geometry">
            <mxPoint as="offset" />
          </mxGeometry>
        </mxCell>
        <mxCell id="WIyWlLk6GJQsqaUBKTNV-6" value="&lt;font style=&quot;font-size: 11px;&quot;&gt;More than one tree&lt;br&gt;&amp;nbsp;is left in&amp;nbsp;priority &lt;br&gt;queue&lt;/font&gt;" style="rhombus;whiteSpace=wrap;html=1;shadow=0;fontFamily=Helvetica;fontSize=12;align=center;strokeWidth=1;spacing=-10;spacingTop=14;labelPosition=center;verticalLabelPosition=middle;verticalAlign=middle;" parent="WIyWlLk6GJQsqaUBKTNV-1" vertex="1">
          <mxGeometry x="190" y="130" width="140" height="90" as="geometry" />
        </mxCell>
        <mxCell id="G9UZVXcUS-SELGoSl9c2-5" style="edgeStyle=orthogonalEdgeStyle;rounded=0;orthogonalLoop=1;jettySize=auto;html=1;exitX=0.5;exitY=0;exitDx=0;exitDy=0;entryX=0.5;entryY=1;entryDx=0;entryDy=0;" edge="1" parent="WIyWlLk6GJQsqaUBKTNV-1" source="G9UZVXcUS-SELGoSl9c2-0" target="G9UZVXcUS-SELGoSl9c2-2">
          <mxGeometry relative="1" as="geometry" />
        </mxCell>
        <mxCell id="G9UZVXcUS-SELGoSl9c2-0" value="merge the trees at the start of&amp;nbsp;priority queue&lt;br&gt;&lt;ul&gt;&lt;li&gt;Root of tree has, as its weight,&lt;br&gt;&amp;nbsp;the summation of the sub-trees&lt;/li&gt;&lt;li&gt;&lt;div style=&quot;text-align: center;&quot;&gt;the tree at the top of the queue is a&lt;span style=&quot;box-sizing: border-box; color: transparent; position: absolute; cursor: text; transform-origin: 0% 0%; display: block; float: left; margin-bottom: -1080px; margin-right: -1080px; text-align: start; background-color: rgb(242, 242, 242); left: 685.789px; top: 399.76px; font-size: 36px; font-family: sans-serif;&quot; class=&quot;textLayer--absolute&quot; dir=&quot;ltr&quot; role=&quot;presentation&quot;&gt; &lt;/span&gt;&lt;span style=&quot;box-sizing: border-box; color: transparent; position: absolute; cursor: text; transform-origin: 0% 0%; display: block; float: left; margin-bottom: -1080px; margin-right: -1080px; text-align: start; background-color: rgb(242, 242, 242); left: 695.797px; top: 399.76px; font-size: 36px; font-family: sans-serif; transform: scaleX(0.955864);&quot; class=&quot;textLayer--absolute&quot; dir=&quot;ltr&quot; role=&quot;presentation&quot;&gt;left sub-child&lt;/span&gt;&lt;span style=&quot;box-sizing: border-box; color: transparent; position: absolute; cursor: text; transform-origin: 0% 0%; display: block; float: left; margin-bottom: -1080px; margin-right: -1080px; text-align: start; background-color: rgb(242, 242, 242); left: 888.973px; top: 399.76px; font-size: 36px; font-family: sans-serif;&quot; class=&quot;textLayer--absolute&quot; dir=&quot;ltr&quot; role=&quot;presentation&quot;&gt; &lt;/span&gt;&lt;span style=&quot;box-sizing: border-box; color: transparent; position: absolute; cursor: text; transform-origin: 0% 0%; display: block; float: left; margin-bottom: -1080px; margin-right: -1080px; text-align: start; background-color: rgb(242, 242, 242); left: 898.657px; top: 399.76px; font-size: 36px; font-family: sans-serif; transform: scaleX(0.96248);&quot; class=&quot;textLayer--absolute&quot; dir=&quot;ltr&quot; role=&quot;presentation&quot;&gt;of root;&lt;/span&gt;&lt;br style=&quot;box-sizing: border-box; color: rgb(0, 0, 0); font-family: Lato, sans-serif; font-size: medium; text-align: start; background-color: rgb(242, 242, 242);&quot; class=&quot;textLayer--absolute&quot; role=&quot;presentation&quot;&gt;&lt;span style=&quot;box-sizing: border-box; color: transparent; position: absolute; cursor: text; transform-origin: 0% 0%; display: block; float: left; margin-bottom: -1080px; margin-right: -1080px; text-align: start; background-color: rgb(242, 242, 242); left: 172.717px; top: 438.64px; font-size: 36px; font-family: sans-serif; transform: scaleX(0.914196);&quot; class=&quot;textLayer--absolute&quot; dir=&quot;ltr&quot; role=&quot;presentation&quot;&gt;the next tree is a right&lt;/span&gt;&lt;span style=&quot;box-sizing: border-box; color: transparent; position: absolute; cursor: text; transform-origin: 0% 0%; display: block; float: left; margin-bottom: -1080px; margin-right: -1080px; text-align: start; background-color: rgb(242, 242, 242); left: 489.197px; top: 438.64px; font-size: 36px; font-family: sans-serif;&quot; class=&quot;textLayer--absolute&quot; dir=&quot;ltr&quot; role=&quot;presentation&quot;&gt; &lt;/span&gt;&lt;span style=&quot;box-sizing: border-box; color: transparent; position: absolute; cursor: text; transform-origin: 0% 0%; display: block; float: left; margin-bottom: -1080px; margin-right: -1080px; text-align: start; background-color: rgb(242, 242, 242); left: 499.06px; top: 438.64px; font-size: 36px; font-family: sans-serif; transform: scaleX(0.946013);&quot; class=&quot;textLayer--absolute&quot; dir=&quot;ltr&quot; role=&quot;presentation&quot;&gt;sub-child&lt;/span&gt;&lt;span style=&quot;box-sizing: border-box; color: transparent; position: absolute; cursor: text; transform-origin: 0% 0%; display: block; float: left; margin-bottom: -1080px; margin-right: -1080px; text-align: start; background-color: rgb(242, 242, 242); left: 635.353px; top: 438.64px; font-size: 36px; font-family: sans-serif;&quot; class=&quot;textLayer--absolute&quot; dir=&quot;ltr&quot; role=&quot;presentation&quot;&gt; &lt;/span&gt;&lt;span style=&quot;box-sizing: border-box; color: transparent; position: absolute; cursor: text; transform-origin: 0% 0%; display: block; float: left; margin-bottom: -1080px; margin-right: -1080px; text-align: start; background-color: rgb(242, 242, 242); left: 645.397px; top: 438.64px; font-size: 36px; font-family: sans-serif; transform: scaleX(0.961565);&quot; class=&quot;textLayer--absolute&quot; dir=&quot;ltr&quot; role=&quot;presentation&quot;&gt;of root&lt;/span&gt;&lt;/div&gt;&lt;span style=&quot;box-sizing: border-box; color: transparent; position: absolute; cursor: text; transform-origin: 0% 0%; display: block; float: left; margin-bottom: -1080px; margin-right: -1080px; text-align: start; background-color: rgb(242, 242, 242); left: 172.717px; top: 351.88px; font-size: 36px; font-family: sans-serif; transform: scaleX(0.905126);&quot; class=&quot;textLayer--absolute&quot; dir=&quot;ltr&quot; role=&quot;presentation&quot;&gt;weights of the&lt;/span&gt;&lt;span style=&quot;box-sizing: border-box; color: transparent; position: absolute; cursor: text; transform-origin: 0% 0%; display: block; float: left; margin-bottom: -1080px; margin-right: -1080px; text-align: start; background-color: rgb(242, 242, 242); left: 373.777px; top: 351.88px; font-size: 36px; font-family: sans-serif;&quot; class=&quot;textLayer--absolute&quot; dir=&quot;ltr&quot; role=&quot;presentation&quot;&gt; &lt;/span&gt;&lt;span style=&quot;box-sizing: border-box; color: transparent; position: absolute; cursor: text; transform-origin: 0% 0%; display: block; float: left; margin-bottom: -1080px; margin-right: -1080px; text-align: start; background-color: rgb(242, 242, 242); left: 383.677px; top: 351.88px; font-size: 36px; font-family: sans-serif; transform: scaleX(0.852305);&quot; class=&quot;textLayer--absolute&quot; dir=&quot;ltr&quot; role=&quot;presentation&quot;&gt;sub-&lt;/span&gt;&lt;span style=&quot;box-sizing: border-box; color: transparent; position: absolute; cursor: text; transform-origin: 0% 0%; display: block; float: left; margin-bottom: -1080px; margin-right: -1080px; text-align: start; background-color: rgb(242, 242, 242); left: 443.437px; top: 351.88px; font-size: 36px; font-family: sans-serif; transform: scaleX(0.931437);&quot; class=&quot;textLayer--absolute&quot; dir=&quot;ltr&quot; role=&quot;presentation&quot;&gt;tree&lt;/span&gt;&lt;span style=&quot;box-sizing: border-box; color: transparent; position: absolute; cursor: text; transform-origin: 0% 0%; display: block; float: left; margin-bottom: -1080px; margin-right: -1080px; text-align: start; background-color: rgb(242, 242, 242); left: 501.217px; top: 351.88px; font-size: 36px; font-family: sans-serif;&quot; class=&quot;textLayer--absolute&quot; dir=&quot;ltr&quot; role=&quot;presentation&quot;&gt;s&lt;/span&gt;&lt;/li&gt;&lt;/ul&gt;" style="rounded=0;whiteSpace=wrap;html=1;spacingBottom=-3;" vertex="1" parent="WIyWlLk6GJQsqaUBKTNV-1">
          <mxGeometry x="400" y="132.5" width="251" height="85" as="geometry" />
        </mxCell>
        <mxCell id="G9UZVXcUS-SELGoSl9c2-8" style="edgeStyle=orthogonalEdgeStyle;rounded=0;orthogonalLoop=1;jettySize=auto;html=1;" edge="1" parent="WIyWlLk6GJQsqaUBKTNV-1" source="G9UZVXcUS-SELGoSl9c2-2" target="WIyWlLk6GJQsqaUBKTNV-6">
          <mxGeometry relative="1" as="geometry" />
        </mxCell>
        <mxCell id="G9UZVXcUS-SELGoSl9c2-2" value="Place enw tree back in a queue in correct place (sorted smallest - larges)" style="rounded=0;whiteSpace=wrap;html=1;fontSize=10;" vertex="1" parent="WIyWlLk6GJQsqaUBKTNV-1">
          <mxGeometry x="465.5" y="30" width="120" height="60" as="geometry" />
        </mxCell>
        <mxCell id="G9UZVXcUS-SELGoSl9c2-12" value="label edges of final tree&lt;br&gt;&lt;ul&gt;&lt;li&gt;left&amp;nbsp; &amp;nbsp;0&lt;/li&gt;&lt;li&gt;right 1&lt;/li&gt;&lt;/ul&gt;" style="rounded=0;whiteSpace=wrap;html=1;verticalAlign=top;" vertex="1" parent="WIyWlLk6GJQsqaUBKTNV-1">
          <mxGeometry x="190" y="280" width="140" height="70" as="geometry" />
        </mxCell>
      </root>
    </mxGraphModel>
  </diagram>
</mxfile>
